HIERARCHY
ROOT hip
{
  OFFSET 0 0 0
  CHANNELS 6 Xposition Yposition Zposition Zrotation Yrotation Xrotation
  JOINT abdomen
  {
    OFFSET 0 20.6881 -0.73152
    CHANNELS 3 Zrotation Xrotation Yrotation
    JOINT chest
    {
      OFFSET 0 11.7043 -0.48768
      CHANNELS 3 Zrotation Xrotation Yrotation
      JOINT neck
      {
        OFFSET 0 22.1894 -2.19456
        CHANNELS 3 Zrotation Xrotation Yrotation
        JOINT head
        {
          OFFSET -0.24384 7.07133 1.2192
          CHANNELS 3 Zrotation Xrotation Yrotation
          JOINT leftEye
          {
            OFFSET 4.14528 8.04674 8.04672
            CHANNELS 3 Zrotation Xrotation Yrotation
            End Site
            {
              OFFSET 1 0 0
            }
          }
          JOINT rightEye
          {
            OFFSET -3.6576 8.04674 8.04672
            CHANNELS 3 Zrotation Xrotation Yrotation
            End Site
            {
              OFFSET 1 0 0
            }
          }
        }
      }
      JOINT rCollar
      {
        OFFSET -2.68224 19.2634 -4.8768
        CHANNELS 3 Zrotation Xrotation Yrotation
        JOINT rShldr
        {
          OFFSET -8.77824 -1.95073 1.46304
          CHANNELS 3 Zrotation Xrotation Yrotation
          JOINT rForeArm
          {
            OFFSET -28.1742 -1.7115 0.48768
            CHANNELS 3 Zrotation Xrotation Yrotation
            JOINT rHand
            {
              OFFSET -22.5879 0.773209 7.07136
              CHANNELS 3 Zrotation Xrotation Yrotation
              JOINT rThumb1
              {
                OFFSET -1.2192 -0.487915 3.41376
                CHANNELS 3 Zrotation Xrotation Yrotation
                JOINT rThumb2
                {
                  OFFSET -3.37035 -0.52449 3.41376
                  CHANNELS 3 Zrotation Xrotation Yrotation
                  End Site
                  {
                    OFFSET -1.78271 -1.18214 1.43049
                  }
                }
              }
              JOINT rIndex1
              {
                OFFSET -7.75947 0.938293 5.60832
                CHANNELS 3 Zrotation Xrotation Yrotation
                JOINT rIndex2
                {
                  OFFSET -2.54057 -0.884171 1.56538
                  CHANNELS 3 Zrotation Xrotation Yrotation
                  End Site
                  {
                    OFFSET -1.62519 -0.234802 1.16502
                  }
                }
              }
              JOINT rMid1
              {
                OFFSET -8.24714 1.18213 3.41376
                CHANNELS 3 Zrotation Xrotation Yrotation
                JOINT rMid2
                {
                  OFFSET -3.10165 -0.590103 1.0647
                  CHANNELS 3 Zrotation Xrotation Yrotation
                  End Site
                  {
                    OFFSET -2.48547 -0.328903 0.83742
                  }
                }
              }
              JOINT rRing1
              {
                OFFSET -8.82822 0.546677 1.51678
                CHANNELS 3 Zrotation Xrotation Yrotation
                JOINT rRing2
                {
                  OFFSET -2.60934 -0.819778 -0.0198488
                  CHANNELS 3 Zrotation Xrotation Yrotation
                  End Site
                  {
                    OFFSET -2.33842 -0.294052 0.168128
                  }
                }
              }
              JOINT rPinky1
              {
                OFFSET -8.27202 -0.0477905 -0.4584
                CHANNELS 3 Zrotation Xrotation Yrotation
                JOINT rPinky2
                {
                  OFFSET -1.82734 -0.647385 -0.700984
                  CHANNELS 3 Zrotation Xrotation Yrotation
                  End Site
                  {
                    OFFSET -1.69225 -0.51767 -0.607171
                  }
                }
              }
            }
          }
        }
      }
      JOINT lCollar
      {
        OFFSET 2.68224 19.2634 -4.8768
        CHANNELS 3 Zrotation Xrotation Yrotation
        JOINT lShldr
        {
          OFFSET 8.77824 -1.95073 1.46304
          CHANNELS 3 Zrotation Xrotation Yrotation
          JOINT lForeArm
          {
            OFFSET 28.1742 -1.7115 0.48768
            CHANNELS 3 Zrotation Xrotation Yrotation
            JOINT lHand
            {
              OFFSET 22.5879 0.773209 7.07136
              CHANNELS 3 Zrotation Xrotation Yrotation
              JOINT lThumb1
              {
                OFFSET 1.2192 -0.487915 3.41376
                CHANNELS 3 Zrotation Xrotation Yrotation
                JOINT lThumb2
                {
                  OFFSET 3.37035 -0.52449 3.41376
                  CHANNELS 3 Zrotation Xrotation Yrotation
                  End Site
                  {
                    OFFSET 1.78271 -1.18214 1.43049
                  }
                }
              }
              JOINT lIndex1
              {
                OFFSET 7.75947 0.938293 5.60832
                CHANNELS 3 Zrotation Xrotation Yrotation
                JOINT lIndex2
                {
                  OFFSET 2.54057 -0.884171 1.56538
                  CHANNELS 3 Zrotation Xrotation Yrotation
                  End Site
                  {
                    OFFSET 1.62519 -0.234802 1.16502
                  }
                }
              }
              JOINT lMid1
              {
                OFFSET 8.24714 1.18213 3.41376
                CHANNELS 3 Zrotation Xrotation Yrotation
                JOINT lMid2
                {
                  OFFSET 3.10165 -0.590103 1.0647
                  CHANNELS 3 Zrotation Xrotation Yrotation
                  End Site
                  {
                    OFFSET 2.48547 -0.328903 0.83742
                  }
                }
              }
              JOINT lRing1
              {
                OFFSET 8.82822 0.546677 1.51678
                CHANNELS 3 Zrotation Xrotation Yrotation
                JOINT lRing2
                {
                  OFFSET 2.60934 -0.819778 -0.0198488
                  CHANNELS 3 Zrotation Xrotation Yrotation
                  End Site
                  {
                    OFFSET 2.33842 -0.294052 0.168128
                  }
                }
              }
              JOINT lPinky1
              {
                OFFSET 8.27202 -0.0477905 -0.4584
                CHANNELS 3 Zrotation Xrotation Yrotation
                JOINT lPinky2
                {
                  OFFSET 1.82734 -0.647385 -0.700984
                  CHANNELS 3 Zrotation Xrotation Yrotation
                  End Site
                  {
                    OFFSET 1.69225 -0.51767 -0.607171
                  }
                }
              }
            }
          }
        }
      }
    }
  }
  JOINT rButtock
  {
    OFFSET -8.77824 4.35084 1.2192
    CHANNELS 3 Zrotation Xrotation Yrotation
    JOINT rThigh
    {
      OFFSET 0 -1.70687 -2.19456
      CHANNELS 3 Zrotation Xrotation Yrotation
      JOINT rShin
      {
        OFFSET 0 -36.8199 0.73152
        CHANNELS 3 Zrotation Xrotation Yrotation
        JOINT rFoot
        {
          OFFSET 0.73152 -45.1104 -5.12064
          CHANNELS 3 Zrotation Xrotation Yrotation
          End Site
          {
            OFFSET -1.1221 -3.69964 12.103
          }
        }
      }
    }
  }
  JOINT lButtock
  {
    OFFSET 8.77824 4.35084 1.2192
    CHANNELS 3 Zrotation Xrotation Yrotation
    JOINT lThigh
    {
      OFFSET 0 -1.70687 -2.19456
      CHANNELS 3 Zrotation Xrotation Yrotation
      JOINT lShin
      {
        OFFSET 0 -36.8199 0.73152
        CHANNELS 3 Zrotation Xrotation Yrotation
        JOINT lFoot
        {
          OFFSET -0.73152 -45.1104 -5.12064
          CHANNELS 3 Zrotation Xrotation Yrotation
          End Site
          {
            OFFSET 1.1221 -3.69964 12.103
          }
        }
      }
    }
  }
}
MOTION
Frames:	5
Frame Time:	0.03333
0.5117000080645084 66.354501247406 0.018000000272877514 -19.240001678466797 52.14069747924805 -19.860004425048828 8.299750328063965 14.207206726074219 11.16349983215332 1.3580412864685059 -7.781909942626953 3.4642980098724365 -0.6833343505859375 10.61810302734375 6.820873260498047 3.5738086700439453 -19.209787368774414 14.198612213134766 -0.0 0.0 -0.0 -0.0 0.0 -0.0 -0.0 0.0 -0.0 86.28520202636719 31.378799438476562 -42.24930191040039 -23.377294540405273 -50.153202056884766 105.19699096679688 -163.95103454589844 5.975654602050781 179.1568145751953 -0.0 0.0 -0.0 -0.0 0.0 -0.0 -0.0 0.0 -0.0 7.73087739944458 5.47489595413208 0.41732463240623474 -0.0 0.0 -0.0 2.9054994583129883 0.9650753736495972 0.10300876200199127 -0.0 0.0 -0.0 10.278595924377441 0.7317469120025635 0.026285577565431595 -0.0 0.0 -0.0 2.221662759780884 -0.7335850596427917 -0.20831839740276337 -0.0 0.0 -0.0 -88.88209533691406 -16.216796875 -85.38729858398438 5.058128833770752 -1.6385033130645752 -8.809844017028809 72.87786865234375 81.81330871582031 -80.76908111572266 -0.0 0.0 -0.0 -0.0 0.0 -0.0 -0.0 0.0 -0.0 -7.73087739944458 5.47489595413208 -0.41732463240623474 -0.0 0.0 -0.0 -2.9054994583129883 0.9650753736495972 -0.10300876200199127 -0.0 0.0 -0.0 -10.278595924377441 0.7317469120025635 -0.026285577565431595 -0.0 0.0 -0.0 -2.221662759780884 -0.7335850596427917 0.20831839740276337 -0.0 0.0 -0.0 -1.9502278566360474 -8.124897956848145 -4.288057327270508 -0.7001971006393433 56.92719268798828 2.0839414596557617 -16.824907302856445 -16.599395751953125 -33.886695861816406 -0.0 0.0 -0.0 58.24199676513672 -48.2007942199707 43.314998626708984 1.528671145439148 64.235107421875 -1.416152834892273 0.14543040096759796 4.491311073303223 -7.054895401000977
1.432699989527464 66.22049808502197 0.1100000023143366 -20.58501434326172 51.7765007019043 -20.079975128173828 8.479391098022461 13.783401489257812 11.308794021606445 1.6197831630706787 -7.844560623168945 3.526869058609009 -0.5380640029907227 10.515030860900879 6.909499645233154 3.2582571506500244 -19.189411163330078 14.304787635803223 -0.0 0.0 -0.0 -0.0 0.0 -0.0 -0.0 0.0 -0.0 86.58928680419922 31.64079475402832 -42.573097229003906 -23.49101448059082 -50.02208709716797 104.85598754882812 -163.9810028076172 3.3893983364105225 179.52293395996094 -0.0 0.0 -0.0 -0.0 0.0 -0.0 -0.0 0.0 -0.0 7.73087739944458 5.47489595413208 0.41732463240623474 -0.0 0.0 -0.0 2.9054994583129883 0.9650753736495972 0.10300876200199127 -0.0 0.0 -0.0 10.278595924377441 0.7317469120025635 0.026285577565431595 -0.0 0.0 -0.0 2.221662759780884 -0.7335850596427917 -0.20831839740276337 -0.0 0.0 -0.0 -90.19049835205078 -15.830199241638184 -85.7863998413086 4.950329303741455 -1.5955978631973267 -8.617533683776855 73.97017669677734 81.8910140991211 -81.88397216796875 -0.0 0.0 -0.0 -0.0 0.0 -0.0 -0.0 0.0 -0.0 -7.73087739944458 5.47489595413208 -0.41732463240623474 -0.0 0.0 -0.0 -2.9054994583129883 0.9650753736495972 -0.10300876200199127 -0.0 0.0 -0.0 -10.278595924377441 0.7317469120025635 -0.026285577565431595 -0.0 0.0 -0.0 -2.221662759780884 -0.7335850596427917 0.20831839740276337 -0.0 0.0 -0.0 -2.1829702854156494 -7.621458530426025 -4.192625522613525 -0.6485210657119751 55.81830596923828 2.0345144271850586 -16.395097732543945 -16.334793090820312 -33.5635986328125 -0.0 0.0 -0.0 59.356895446777344 -48.42310333251953 44.74519729614258 1.6164156198501587 65.19058990478516 -1.52587890625 0.037114016711711884 3.7675390243530273 -7.385270595550537
2.005899976938963 66.32260084152222 0.17200000293087214 -20.050006866455078 52.188690185546875 -19.60000991821289 8.455540657043457 13.661705017089844 11.308902740478516 1.86165189743042 -7.8475823402404785 3.5449745655059814 -0.39827296137809753 10.518095016479492 7.074406623840332 2.919903039932251 -19.306594848632812 14.560486793518066 -0.0 0.0 -0.0 -0.0 0.0 -0.0 -0.0 0.0 -0.0 86.85829162597656 31.751205444335938 -42.95208740234375 -23.392305374145508 -50.14478302001953 105.15399169921875 -164.00299072265625 0.06038009747862816 179.99151611328125 -0.0 0.0 -0.0 -0.0 0.0 -0.0 -0.0 0.0 -0.0 7.73087739944458 5.47489595413208 0.41732463240623474 -0.0 0.0 -0.0 2.9054994583129883 0.9650753736495972 0.10300876200199127 -0.0 0.0 -0.0 10.278595924377441 0.7317469120025635 0.026285577565431595 -0.0 0.0 -0.0 2.221662759780884 -0.7335850596427917 -0.20831839740276337 -0.0 0.0 -0.0 -89.15279388427734 -15.606698036193848 -85.81968688964844 4.932735443115234 -1.589071273803711 -8.585931777954102 70.01139831542969 81.83006286621094 -77.90122985839844 -0.0 0.0 -0.0 -0.0 0.0 -0.0 -0.0 0.0 -0.0 -7.73087739944458 5.47489595413208 -0.41732463240623474 -0.0 0.0 -0.0 -2.9054994583129883 0.9650753736495972 -0.10300876200199127 -0.0 0.0 -0.0 -10.278595924377441 0.7317469120025635 -0.026285577565431595 -0.0 0.0 -0.0 -2.221662759780884 -0.7335850596427917 0.20831839740276337 -0.0 0.0 -0.0 -2.601851463317871 -6.4687371253967285 -4.11115026473999 -0.5857217311859131 54.32598876953125 1.9676177501678467 -15.964603424072266 -15.950187683105469 -33.37369155883789 -0.0 0.0 -0.0 59.69718933105469 -48.36229705810547 45.5609016418457 1.6892484426498413 65.94699096679688 -1.6204853057861328 -0.10340721160173416 2.876147508621216 -7.759402751922607
2.7708999812602997 66.37279987335205 0.29999999969732016 -21.207984924316406 52.154388427734375 -20.279972076416016 8.227311134338379 13.841901779174805 11.163498878479004 2.083354949951172 -7.7910637855529785 3.5185768604278564 -0.2694821357727051 10.626788139343262 7.316143989562988 2.5562896728515625 -19.560951232910156 14.96603775024414 -0.0 0.0 -0.0 -0.0 0.0 -0.0 -0.0 0.0 -0.0 87.089599609375 31.709793090820312 -43.38340759277344 -23.06988525390625 -50.51310729980469 106.10598754882812 -163.97952270507812 -4.014280796051025 -179.4207305908203 -0.0 0.0 -0.0 -0.0 0.0 -0.0 -0.0 0.0 -0.0 7.73087739944458 5.47489595413208 0.41732463240623474 -0.0 0.0 -0.0 2.9054994583129883 0.9650753736495972 0.10300876200199127 -0.0 0.0 -0.0 10.278595924377441 0.7317469120025635 0.026285577565431595 -0.0 0.0 -0.0 2.221662759780884 -0.7335850596427917 -0.20831839740276337 -0.0 0.0 -0.0 -85.77259826660156 -15.547898292541504 -85.49919891357422 5.00557804107666 -1.618670105934143 -8.7150239944458 61.53607940673828 81.45726776123047 -69.32574462890625 -0.0 0.0 -0.0 -0.0 0.0 -0.0 -0.0 0.0 -0.0 -7.73087739944458 5.47489595413208 -0.41732463240623474 -0.0 0.0 -0.0 -2.9054994583129883 0.9650753736495972 -0.10300876200199127 -0.0 0.0 -0.0 -10.278595924377441 0.7317469120025635 -0.026285577565431595 -0.0 0.0 -0.0 -2.221662759780884 -0.7335850596427917 0.20831839740276337 -0.0 0.0 -0.0 -3.208778142929077 -4.666604518890381 -4.046573162078857 -0.5166090130805969 52.45020294189453 1.8879873752593994 -15.531885147094727 -15.4472074508667 -33.31800079345703 -0.0 0.0 -0.0 59.24650573730469 -48.03939437866211 45.75370407104492 1.7449334859848022 66.5042953491211 -1.6986052989959717 -0.2817942500114441 1.818243384361267 -8.178321838378906
3.2911999616771936 66.36319756507874 0.3679999994346872 -21.0050048828125 52.416690826416016 -20.190038681030273 8.820093154907227 13.944900512695312 11.080097198486328 2.0035109519958496 -7.831141948699951 3.5213606357574463 -0.0644063726067543 10.72171401977539 7.5530781745910645 2.2467517852783203 -19.573286056518555 15.35871410369873 -0.0 0.0 -0.0 -0.0 0.0 -0.0 -0.0 0.0 -0.0 87.60900115966797 32.01569747924805 -43.82891082763672 -22.78740119934082 -50.81980514526367 106.91999053955078 -163.9159698486328 -8.242027282714844 -178.83351135253906 -0.0 0.0 -0.0 -0.0 0.0 -0.0 -0.0 0.0 -0.0 7.73087739944458 5.47489595413208 0.41732463240623474 -0.0 0.0 -0.0 2.9054994583129883 0.9650753736495972 0.10300876200199127 -0.0 0.0 -0.0 10.278595924377441 0.7317469120025635 0.026285577565431595 -0.0 0.0 -0.0 2.221662759780884 -0.7335850596427917 -0.20831839740276337 -0.0 0.0 -0.0 -83.26110076904297 -15.534195899963379 -85.33729553222656 5.043251037597656 -1.6341032981872559 -8.781743049621582 53.34435272216797 80.89031219482422 -61.04964828491211 -0.0 0.0 -0.0 -0.0 0.0 -0.0 -0.0 0.0 -0.0 -7.73087739944458 5.47489595413208 -0.41732463240623474 -0.0 0.0 -0.0 -2.9054994583129883 0.9650753736495972 -0.10300876200199127 -0.0 0.0 -0.0 -10.278595924377441 0.7317469120025635 -0.026285577565431595 -0.0 0.0 -0.0 -2.221662759780884 -0.7335850596427917 0.20831839740276337 -0.0 0.0 -0.0 -3.0614142417907715 -3.391192674636841 -3.900559425354004 -0.46284914016723633 50.87449645996094 1.8304117918014526 -15.108512878417969 -14.95138931274414 -33.26589584350586 -0.0 0.0 -0.0 60.00670623779297 -47.860595703125 46.49259948730469 1.8116058111190796 67.13419342041016 -1.7914774417877197 -0.4359036982059479 1.028798222541809 -8.629853248596191
